<?xml version="1.0" encoding="UTF-8"?>
<svg xmlns="http://www.w3.org/2000/svg" version="1.1" viewBox="0 0 43.2 43.2">
  <defs>
    <style>
      .cls-1 {
        fill: #fff;
      }
    </style>
  </defs>
  <!-- Generator: Adobe Illustrator 28.6.0, SVG Export Plug-In . SVG Version: 1.2.0 Build 709)  -->
  <g>
    <g id="Layer_1">
      <path class="cls-1" d="M32.6,25.45c-2.38,0-4.49,1.17-5.79,2.97l-9.38-4.69c.21-.67.32-1.39.32-2.13s-.11-1.46-.32-2.13l9.39-4.69c1.3,1.8,3.41,2.97,5.79,2.97,3.94,0,7.15-3.21,7.15-7.15s-3.21-7.15-7.15-7.15-7.15,3.21-7.15,7.15c0,.74.11,1.46.32,2.13l-9.39,4.69c-1.3-1.8-3.41-2.97-5.79-2.97-3.94,0-7.15,3.21-7.15,7.15s3.21,7.15,7.15,7.15c2.38,0,4.49-1.17,5.79-2.97l9.38,4.69c-.21.67-.32,1.39-.32,2.13,0,3.94,3.21,7.15,7.15,7.15s7.15-3.21,7.15-7.15-3.21-7.15-7.15-7.15ZM32.6,5.75c2.67,0,4.85,2.18,4.85,4.85s-2.18,4.85-4.85,4.85-4.85-2.18-4.85-4.85,2.18-4.85,4.85-4.85ZM10.6,26.45c-2.67,0-4.85-2.18-4.85-4.85s2.18-4.85,4.85-4.85,4.85,2.18,4.85,4.85-2.18,4.85-4.85,4.85ZM32.6,37.45c-2.67,0-4.85-2.18-4.85-4.85s2.18-4.85,4.85-4.85,4.85,2.18,4.85,4.85-2.18,4.85-4.85,4.85Z"/>
    </g>
  </g>
</svg>