<?xml version="1.0" encoding="UTF-8"?>
<svg xmlns="http://www.w3.org/2000/svg" version="1.1" viewBox="0 0 43.2 43.2">
  <defs>
    <style>
      .cls-1 {
      fill: #fff;
      }
    </style>
  </defs>
  <!-- Generator: Adobe Illustrator 28.6.0, SVG Export Plug-In . SVG Version: 1.2.0 Build 709)  -->
  <g>
    <g id="Layer_1">
      <path class="cls-1"
        d="M31.83,42.57H5.83c-2.84,0-5.15-2.31-5.15-5.15V11.42c0-2.84,2.31-5.15,5.15-5.15h26c2.84,0,5.15,2.31,5.15,5.15v26c0,2.84-2.31,5.15-5.15,5.15ZM5.83,8.57c-1.57,0-2.85,1.28-2.85,2.85v26c0,1.57,1.28,2.85,2.85,2.85h26c1.57,0,2.85-1.28,2.85-2.85V11.42c0-1.57-1.28-2.85-2.85-2.85H5.83ZM30.83,13.27H6.83v2.3h24v-2.3ZM30.83,20.27H6.83v2.3h24v-2.3ZM30.83,26.27H6.83v2.3h24v-2.3ZM30.83,33.26H6.83v2.3h24v-2.3ZM31.83,42.57H5.83c-2.84,0-5.15-2.31-5.15-5.15V11.42c0-2.84,2.31-5.15,5.15-5.15h26c2.84,0,5.15,2.31,5.15,5.15v26c0,2.84-2.31,5.15-5.15,5.15ZM5.83,8.57c-1.57,0-2.85,1.28-2.85,2.85v26c0,1.57,1.28,2.85,2.85,2.85h26c1.57,0,2.85-1.28,2.85-2.85V11.42c0-1.57-1.28-2.85-2.85-2.85H5.83ZM30.83,13.27H6.83v2.3h24v-2.3ZM30.83,20.27H6.83v2.3h24v-2.3ZM30.83,26.27H6.83v2.3h24v-2.3ZM30.83,33.26H6.83v2.3h24v-2.3ZM37.37.63H11.37c-2.31,0-4.29,1.54-4.93,3.71h2.46c.5-.85,1.42-1.41,2.46-1.41h26c1.57,0,2.85,1.28,2.85,2.85v26c0,1.01-.53,1.89-1.32,2.4v2.5c2.09-.66,3.62-2.59,3.62-4.89V5.78c0-2.84-2.31-5.15-5.15-5.15Z" />
    </g>
  </g>
</svg>
