<svg aria-hidden="true" style="position: absolute; width: 0; height: 0; overflow: hidden;" version="1.1" xmlns="http://www.w3.org/2000/svg" xmlns:xlink="http://www.w3.org/1999/xlink">
<defs>
<symbol id="icon-pinterest" viewBox="0 0 20 20">
<path d="M10.405 3.976c-3.525 0-5.302 2.528-5.302 4.635 0 1.277 0.484 2.412 1.519 2.834 0.171 0.070 0.322 0.003 0.372-0.184 0.034-0.131 0.115-0.461 0.152-0.598 0.051-0.184 0.031-0.25-0.106-0.413-0.299-0.352-0.49-0.81-0.49-1.456 0-1.875 1.402-3.553 3.653-3.553 1.993 0 3.088 1.219 3.088 2.843 0 2.14-0.947 3.945-2.353 3.945-0.777 0-1.357-0.642-1.171-1.429 0.223-0.942 0.655-1.956 0.655-2.633 0-0.607-0.327-1.113-1-1.113-0.793 0-1.432 0.82-1.432 1.92 0 0.701 0.238 1.174 0.238 1.174s-0.813 3.441-0.955 4.043c-0.283 1.2-0.043 2.672-0.021 2.821 0.011 0.087 0.124 0.109 0.175 0.043 0.073-0.096 1.019-1.264 1.339-2.429 0.092-0.33 0.522-2.037 0.522-2.037 0.259 0.491 1.011 0.923 1.813 0.923 2.386 0 4.003-2.173 4.003-5.086-0.003-2.2-1.867-4.25-4.7-4.25z"></path>
</symbol>
<symbol id="icon-twitter" viewBox="0 0 20 20">
<path d="M15.742 5.843c0.673-0.413 1.119-0.978 1.337-1.695-0.655 0.348-1.307 0.586-1.959 0.717-0.586-0.63-1.328-0.95-2.217-0.95-0.869 0-1.603 0.305-2.203 0.898-0.596 0.598-0.897 1.323-0.897 2.171 0 0.258 0.032 0.487 0.098 0.683-2.563-0.088-4.685-1.151-6.357-3.197-0.283 0.501-0.425 1.011-0.425 1.538 0 1.084 0.458 1.943 1.371 2.574-0.521-0.044-0.98-0.176-1.371-0.392 0 0.774 0.227 1.421 0.683 1.99 0.457 0.563 1.045 0.922 1.762 1.076-0.26 0.067-0.534 0.098-0.816 0.098-0.26 0-0.444-0.022-0.553-0.069 0.192 0.631 0.553 1.143 1.076 1.534 0.521 0.393 1.12 0.601 1.793 0.619-1.11 0.871-2.379 1.302-3.815 1.302-0.352 0-0.601-0.005-0.752-0.032 1.414 0.918 2.988 1.374 4.73 1.374 1.783 0 3.357-0.452 4.728-1.355 1.371-0.898 2.383-2.007 3.033-3.312 0.653-1.303 0.977-2.66 0.977-4.077v-0.39c0.632-0.475 1.143-1.010 1.533-1.601-0.567 0.244-1.152 0.41-1.758 0.494z"></path>
</symbol>
<symbol id="icon-facebook" viewBox="0 0 20 20">
<path d="M10.833 8.333h2.5v2.5h-2.5v5.833h-2.5v-5.833h-2.5v-2.5h2.5v-1.046c0-0.991 0.312-2.243 0.932-2.927 0.62-0.686 1.394-1.028 2.322-1.028h1.747v2.5h-1.75c-0.415 0-0.75 0.335-0.75 0.749v1.751z"></path>
</symbol>
<symbol id="icon-clipboard" viewBox="0 0 20 20">
<path d="M16.5 20h-14c-0.827 0-1.5-0.673-1.5-1.5v-14c0-0.827 0.673-1.5 1.5-1.5h1c0.276 0 0.5 0.224 0.5 0.5s-0.224 0.5-0.5 0.5h-1c-0.276 0-0.5 0.224-0.5 0.5v14c0 0.276 0.224 0.5 0.5 0.5h14c0.276 0 0.5-0.224 0.5-0.5v-14c0-0.276-0.224-0.5-0.5-0.5h-1c-0.276 0-0.5-0.224-0.5-0.5s0.224-0.5 0.5-0.5h1c0.827 0 1.5 0.673 1.5 1.5v14c0 0.827-0.673 1.5-1.5 1.5z"></path>
<path d="M13.501 5c-0 0-0 0-0.001 0h-8c-0.276 0-0.5-0.224-0.5-0.5 0-1.005 0.453-1.786 1.276-2.197 0.275-0.138 0.547-0.213 0.764-0.254 0.213-1.164 1.235-2.049 2.459-2.049s2.246 0.885 2.459 2.049c0.218 0.041 0.489 0.116 0.764 0.254 0.816 0.408 1.268 1.178 1.276 2.17 0.001 0.009 0.001 0.018 0.001 0.027 0 0.276-0.224 0.5-0.5 0.5zM6.060 4h6.88c-0.096-0.356-0.307-0.617-0.638-0.79-0.389-0.203-0.8-0.21-0.805-0.21-0.276 0-0.497-0.224-0.497-0.5 0-0.827-0.673-1.5-1.5-1.5s-1.5 0.673-1.5 1.5c0 0.276-0.224 0.5-0.5 0.5-0.001 0-0.413 0.007-0.802 0.21-0.331 0.173-0.542 0.433-0.638 0.79z"></path>
<path d="M9.5 3c-0.132 0-0.261-0.053-0.353-0.147s-0.147-0.222-0.147-0.353 0.053-0.261 0.147-0.353c0.093-0.093 0.222-0.147 0.353-0.147s0.261 0.053 0.353 0.147c0.093 0.093 0.147 0.222 0.147 0.353s-0.053 0.26-0.147 0.353c-0.093 0.093-0.222 0.147-0.353 0.147z"></path>
</symbol>
<symbol id="icon-report" viewBox="0 0 20 20">
<path d="M16.5 20h-14c-0.827 0-1.5-0.673-1.5-1.5v-14c0-0.827 0.673-1.5 1.5-1.5h1c0.276 0 0.5 0.224 0.5 0.5s-0.224 0.5-0.5 0.5h-1c-0.276 0-0.5 0.224-0.5 0.5v14c0 0.276 0.224 0.5 0.5 0.5h14c0.276 0 0.5-0.224 0.5-0.5v-14c0-0.276-0.224-0.5-0.5-0.5h-1c-0.276 0-0.5-0.224-0.5-0.5s0.224-0.5 0.5-0.5h1c0.827 0 1.5 0.673 1.5 1.5v14c0 0.827-0.673 1.5-1.5 1.5z"></path>
<path d="M13.501 5c-0 0-0 0-0.001 0h-8c-0.276 0-0.5-0.224-0.5-0.5 0-1.005 0.453-1.786 1.276-2.197 0.275-0.138 0.547-0.213 0.764-0.254 0.213-1.164 1.235-2.049 2.459-2.049s2.246 0.885 2.459 2.049c0.218 0.041 0.489 0.116 0.764 0.254 0.816 0.408 1.268 1.178 1.276 2.17 0.001 0.009 0.001 0.018 0.001 0.027 0 0.276-0.224 0.5-0.5 0.5zM6.060 4h6.88c-0.096-0.356-0.307-0.617-0.638-0.79-0.389-0.203-0.8-0.21-0.805-0.21-0.276 0-0.497-0.224-0.497-0.5 0-0.827-0.673-1.5-1.5-1.5s-1.5 0.673-1.5 1.5c0 0.276-0.224 0.5-0.5 0.5-0.001 0-0.413 0.007-0.802 0.21-0.331 0.173-0.542 0.433-0.638 0.79z"></path>
<path d="M9.5 3c-0.132 0-0.261-0.053-0.353-0.147s-0.147-0.222-0.147-0.353 0.053-0.261 0.147-0.353c0.093-0.093 0.222-0.147 0.353-0.147s0.261 0.053 0.353 0.147c0.093 0.093 0.147 0.222 0.147 0.353s-0.053 0.26-0.147 0.353c-0.093 0.093-0.222 0.147-0.353 0.147z"></path>
<path d="M14.5 8h-10c-0.276 0-0.5-0.224-0.5-0.5s0.224-0.5 0.5-0.5h10c0.276 0 0.5 0.224 0.5 0.5s-0.224 0.5-0.5 0.5z"></path>
<path d="M12.5 11h-8c-0.276 0-0.5-0.224-0.5-0.5s0.224-0.5 0.5-0.5h8c0.276 0 0.5 0.224 0.5 0.5s-0.224 0.5-0.5 0.5z"></path>
<path d="M14.5 13h-10c-0.276 0-0.5-0.224-0.5-0.5s0.224-0.5 0.5-0.5h10c0.276 0 0.5 0.224 0.5 0.5s-0.224 0.5-0.5 0.5z"></path>
<path d="M14.5 15h-10c-0.276 0-0.5-0.224-0.5-0.5s0.224-0.5 0.5-0.5h10c0.276 0 0.5 0.224 0.5 0.5s-0.224 0.5-0.5 0.5z"></path>
<path d="M9.5 17h-5c-0.276 0-0.5-0.224-0.5-0.5s0.224-0.5 0.5-0.5h5c0.276 0 0.5 0.224 0.5 0.5s-0.224 0.5-0.5 0.5z"></path>
</symbol>
<symbol id="icon-action" viewBox="0 0 20 20">
<path d="M15.5 20h-12c-0.827 0-1.5-0.673-1.5-1.5v-10c0-0.827 0.673-1.5 1.5-1.5h4c0.276 0 0.5 0.224 0.5 0.5s-0.224 0.5-0.5 0.5h-4c-0.276 0-0.5 0.224-0.5 0.5v10c0 0.276 0.224 0.5 0.5 0.5h12c0.276 0 0.5-0.224 0.5-0.5v-10c0-0.276-0.224-0.5-0.5-0.5h-4c-0.276 0-0.5-0.224-0.5-0.5s0.224-0.5 0.5-0.5h4c0.827 0 1.5 0.673 1.5 1.5v10c0 0.827-0.673 1.5-1.5 1.5z"></path>
<path d="M12.853 3.646l-3-3c-0.195-0.195-0.512-0.195-0.707 0l-3 3c-0.195 0.195-0.195 0.512 0 0.707s0.512 0.195 0.707 0l2.147-2.146v11.293c0 0.276 0.224 0.5 0.5 0.5s0.5-0.224 0.5-0.5v-11.293l2.147 2.146c0.098 0.098 0.226 0.146 0.353 0.146s0.256-0.049 0.353-0.146c0.195-0.195 0.195-0.512 0-0.707z"></path>
</symbol>
<symbol id="icon-link" viewBox="0 0 20 20">
<path d="M10.682 12.998c-0.943 0-1.886-0.359-2.604-1.077-0.195-0.195-0.195-0.512 0-0.707s0.512-0.195 0.707 0c1.046 1.046 2.747 1.046 3.793 0l3.636-3.636c1.046-1.046 1.046-2.747 0-3.793s-2.747-1.046-3.793 0l-3.068 3.068c-0.195 0.195-0.512 0.195-0.707 0s-0.195-0.512 0-0.707l3.068-3.068c1.436-1.436 3.772-1.436 5.207 0s1.436 3.772 0 5.207l-3.636 3.636c-0.718 0.718-1.661 1.077-2.604 1.077z"></path>
<path d="M4.682 18.998c-0.943 0-1.886-0.359-2.604-1.077-1.436-1.436-1.436-3.772 0-5.207l3.636-3.636c1.436-1.436 3.772-1.436 5.207 0 0.195 0.195 0.195 0.512 0 0.707s-0.512 0.195-0.707 0c-1.046-1.046-2.747-1.046-3.793 0l-3.636 3.636c-1.046 1.046-1.046 2.747 0 3.793s2.747 1.046 3.793 0l3.068-3.068c0.195-0.195 0.512-0.195 0.707 0s0.195 0.512 0 0.707l-3.068 3.068c-0.718 0.718-1.661 1.077-2.604 1.077z"></path>
</symbol>
<symbol id="icon-plus" viewBox="0 0 20 20">
<path d="M18.5 10h-8.5v-8.5c0-0.276-0.224-0.5-0.5-0.5s-0.5 0.224-0.5 0.5v8.5h-8.5c-0.276 0-0.5 0.224-0.5 0.5s0.224 0.5 0.5 0.5h8.5v8.5c0 0.276 0.224 0.5 0.5 0.5s0.5-0.224 0.5-0.5v-8.5h8.5c0.276 0 0.5-0.224 0.5-0.5s-0.224-0.5-0.5-0.5z"></path>
</symbol>
<symbol id="icon-logo" viewBox="0 0 20 20">
<path d="M10 3.786c2.536 0 4.913 0.674 6.691 1.897 1.703 1.172 2.641 2.705 2.641 4.317s-0.938 3.146-2.641 4.317c-1.778 1.223-4.155 1.897-6.691 1.897s-4.913-0.674-6.691-1.897c-1.703-1.171-2.641-2.704-2.641-4.317s0.938-3.146 2.641-4.317c1.778-1.223 4.155-1.897 6.691-1.897zM10 3.132c-5.515 0-9.986 3.075-9.986 6.868s4.471 6.868 9.986 6.868c5.515 0 9.986-3.075 9.986-6.868s-4.471-6.868-9.986-6.868v0zM12.885 11.995v0.948l-0.818-0.584 0.818-0.364zM10 11.332v1.326c-0.406-0.018-0.777-0.235-0.993-0.579l0.993-0.747zM7.162 12.079v1.145c0 0-0.257 0.116-1.121-0.327zM2.875 13.294c0 0 2.149 2.032 6.354 2.242l0.771-1.004 0.771 1.004c0 0 3.574 0.024 5.98-2.032l-1.261-0.888-1.075 0.327-1.448-1.378-1.355 0.514-1.495-1.331-1.788 1.26-0.969-0.513c0 0-2.067 1.285-1.974 1.238 0.094-0.047-1.086-0.117-1.086-0.117zM2.303 11.845l2.476-0.104-2.873-1.297 2.967 0.304-2.873-2.296 4.484 2.459-2.85-3.387 3.154 2.476-1.869-4.041 3.107 4.438-1.425-4.695 1.916 3.317-0.234-4.298 1.378 4.929 0.467-4.976 0.374 3.948 1.262-3.177-0.701 4.602 2.756-4.789-1.448 3.994 2.733-2.779-2.355 3.992 4.002-3.315-2.605 3.060 3.247-1.285-3.55 2.407 4.602-1.028-3.434 1.518 2.499 0.047-1.448 0.444 1.168 0.63c1.565-1.051 1.471-3.107 1.471-3.107-0.934-5.723-8.888-5.536-8.888-5.536-8.608 0.327-8.655 5.7-8.655 5.7-0.21 1.659 1.402 2.943 1.402 2.943l1.168-0.474z"></path>
</symbol>
<symbol id="icon-trail" viewBox="0 0 20 20">
<path d="M19.675 5.787l-1.24 1.242c-0.249 0.262-0.585 0.426-0.945 0.463h-7.496v10.006h1.245c0.331-0.001 0.65 0.128 0.886 0.361s0.369 0.548 0.371 0.879v1.262h-7.505v-1.262c0-0.329 0.131-0.647 0.365-0.879s0.552-0.362 0.883-0.361h1.254v-16.261c0.007-0.686 0.565-1.237 1.25-1.237s1.244 0.551 1.251 1.237v1.252h7.496c0.352 0.008 0.688 0.157 0.93 0.416l1.254 1.257c0.217 0.216 0.337 0.507 0.339 0.812 0 0.305-0.122 0.597-0.338 0.813zM6.242 4.991h-3.732c-0.361 0.035-0.695 0.198-0.945 0.459l-1.243 1.24c-0.446 0.45-0.446 1.174 0 1.623l1.257 1.26c0.242 0.259 0.578 0.41 0.931 0.421h3.732zM15.898 9.159c-0.241-0.26-0.577-0.41-0.93-0.416h-3.723v5.003h3.723c0.36-0.038 0.695-0.203 0.944-0.465l1.24-1.243c0.216-0.214 0.338-0.507 0.338-0.812 0-0.303-0.122-0.596-0.338-0.812z"></path>
</symbol>
<symbol id="icon-walk" viewBox="0 0 20 20">
<path d="M10 0c5.523 0 10 4.477 10 10s-4.477 10-10 10c-5.523 0-10-4.477-10-10s4.477-10 10-10zM10.292 6.317l-0.372 0.009c-0.571 0.079-0.777 0.714-0.92 1.413l-0.381 1.856-0.317 1.444c-0.013 0.052-0.018 0.106-0.016 0.159l-0.333 1.651-1.952 2.459c-0.108 0.132-0.156 0.301-0.135 0.469s0.11 0.32 0.246 0.42c0.108 0.087 0.242 0.137 0.381 0.143 0.196 0.002 0.383-0.086 0.507-0.238l2.032-2.587c0.058-0.076 0.101-0.162 0.127-0.254l0.317-1.46 1.222 1.619 0.127 2.539c0.013 0.334 0.285 0.599 0.619 0.603h0.048c0.35-0.018 0.619-0.316 0.603-0.666l-0.143-2.746c-0.001-0.127-0.046-0.251-0.127-0.349l-1.159-1.539 0.539-2.555 0.508 0.714c0.051 0.061 0.109 0.114 0.175 0.159l1.571 0.745v6.047h0.476v-5.92c0.157-0.019 0.291-0.122 0.349-0.269 0.060-0.109 0.072-0.237 0.033-0.355s-0.126-0.214-0.239-0.264l-0.127-0.064v-1.714h-0.476v1.476l-1.047-0.492-1.301-1.809c-0.333-0.511-0.094-0.254-0.835-0.644zM7.588 5.818c-0.302 0-0.572 0.048-0.651 0.318l-1.27 3.507c-0.040 0.128-0.028 0.268 0.035 0.387s0.17 0.208 0.299 0.248l0.968 0.396c0.128 0.048 0.27 0.040 0.393-0.020s0.216-0.167 0.257-0.297l1.302-3.872c0.043-0.147 0.018-0.305-0.068-0.431s-0.225-0.207-0.377-0.22c-0.19 0-0.587-0.016-0.888-0.016zM10.984 3.438c-0.737 0-1.333 0.597-1.333 1.333s0.596 1.333 1.333 1.333c0.736 0 1.333-0.597 1.333-1.333 0-0.354-0.14-0.693-0.39-0.944s-0.59-0.39-0.943-0.389z"></path>
</symbol>
<symbol id="icon-arrow-left" viewBox="0 0 20 20">
<path d="M0.646 10.146l6-6c0.195-0.195 0.512-0.195 0.707 0s0.195 0.512 0 0.707l-5.146 5.146h16.293c0.276 0 0.5 0.224 0.5 0.5s-0.224 0.5-0.5 0.5h-16.293l5.146 5.146c0.195 0.195 0.195 0.512 0 0.707-0.098 0.098-0.226 0.146-0.354 0.146s-0.256-0.049-0.354-0.146l-6-6c-0.195-0.195-0.195-0.512 0-0.707z"></path>
</symbol>
<symbol id="icon-arrow-right" viewBox="0 0 20 20">
<path d="M19.354 10.146l-6-6c-0.195-0.195-0.512-0.195-0.707 0s-0.195 0.512 0 0.707l5.146 5.146h-16.293c-0.276 0-0.5 0.224-0.5 0.5s0.224 0.5 0.5 0.5h16.293l-5.146 5.146c-0.195 0.195-0.195 0.512 0 0.707 0.098 0.098 0.226 0.146 0.354 0.146s0.256-0.049 0.354-0.146l6-6c0.195-0.195 0.195-0.512 0-0.707z"></path>
</symbol>
<symbol id="icon-arrow-up-right" viewBox="0 0 20 20">
<path d="M17.5 2h-8c-0.276 0-0.5 0.224-0.5 0.5s0.224 0.5 0.5 0.5h6.793l-14.146 14.146c-0.195 0.195-0.195 0.512 0 0.707 0.098 0.098 0.226 0.146 0.354 0.146s0.256-0.049 0.354-0.146l14.146-14.146v6.793c0 0.276 0.224 0.5 0.5 0.5s0.5-0.224 0.5-0.5v-8c0-0.276-0.224-0.5-0.5-0.5z"></path>
</symbol>
<symbol id="icon-chevron-thin" viewBox="0 0 20 20">
<path d="M18.999 13c-0.082 0-0.165-0.020-0.242-0.063l-8.757-4.865-8.757 4.865c-0.241 0.134-0.546 0.047-0.68-0.194s-0.047-0.546 0.194-0.68l9-5c0.151-0.084 0.335-0.084 0.486 0l9 5c0.241 0.134 0.328 0.438 0.194 0.68-0.091 0.164-0.262 0.257-0.438 0.257z"></path>
</symbol>
<symbol id="icon-chevron" viewBox="0 0 20 20">
<path d="M15.583 11.917l-5-5c-0.333-0.333-0.833-0.333-1.167 0l-5 5c-0.333 0.333-0.333 0.833 0 1.167s0.833 0.333 1.167 0l4.417-4.417 4.417 4.417c0.167 0.167 0.417 0.25 0.583 0.25s0.417-0.083 0.583-0.25c0.333-0.333 0.333-0.833 0-1.167z"></path>
</symbol>
<symbol id="icon-close" viewBox="0 0 20 20">
<path d="M10.707 10.5l5.646-5.646c0.195-0.195 0.195-0.512 0-0.707s-0.512-0.195-0.707 0l-5.646 5.646-5.646-5.646c-0.195-0.195-0.512-0.195-0.707 0s-0.195 0.512 0 0.707l5.646 5.646-5.646 5.646c-0.195 0.195-0.195 0.512 0 0.707 0.098 0.098 0.226 0.146 0.354 0.146s0.256-0.049 0.354-0.146l5.646-5.646 5.646 5.646c0.098 0.098 0.226 0.146 0.354 0.146s0.256-0.049 0.354-0.146c0.195-0.195 0.195-0.512 0-0.707l-5.646-5.646z"></path>
</symbol>
<symbol id="icon-contract" viewBox="0 0 20 20">
<path d="M19.853 0.146c-0.195-0.195-0.512-0.195-0.707 0l-6.146 6.146v-2.793c0-0.276-0.224-0.5-0.5-0.5s-0.5 0.224-0.5 0.5v4c0 0.276 0.224 0.5 0.5 0.5h4c0.276 0 0.5-0.224 0.5-0.5s-0.224-0.5-0.5-0.5h-2.793l6.146-6.146c0.195-0.195 0.195-0.512 0-0.707z"></path>
<path d="M7.5 12h-4c-0.276 0-0.5 0.224-0.5 0.5s0.224 0.5 0.5 0.5h2.793l-6.146 6.147c-0.195 0.195-0.195 0.512 0 0.707 0.098 0.098 0.226 0.146 0.354 0.146s0.256-0.049 0.354-0.147l6.146-6.146v2.793c0 0.276 0.224 0.5 0.5 0.5s0.5-0.224 0.5-0.5v-4c0-0.276-0.224-0.5-0.5-0.5z"></path>
</symbol>
<symbol id="icon-expand" viewBox="0 0 20 20">
<path d="M19.5 0h-5c-0.276 0-0.5 0.224-0.5 0.5s0.224 0.5 0.5 0.5h3.793l-6.146 6.146c-0.195 0.195-0.195 0.512 0 0.707 0.098 0.098 0.226 0.146 0.353 0.146s0.256-0.049 0.353-0.146l6.147-6.146v3.793c0 0.276 0.224 0.5 0.5 0.5s0.5-0.224 0.5-0.5v-5c0-0.276-0.224-0.5-0.5-0.5z"></path>
<path d="M7.854 12.147c-0.195-0.195-0.512-0.195-0.707 0l-6.146 6.146v-3.793c0-0.276-0.224-0.5-0.5-0.5s-0.5 0.224-0.5 0.5v5c0 0.276 0.224 0.5 0.5 0.5h5c0.276 0 0.5-0.224 0.5-0.5s-0.224-0.5-0.5-0.5h-3.793l6.146-6.147c0.195-0.195 0.195-0.512 0-0.707z"></path>
</symbol>
<symbol id="icon-file-audio" viewBox="0 0 20 20">
<path d="M17.854 5.646l-4.5-4.5c-0.094-0.094-0.221-0.146-0.354-0.146h-9.5c-0.827 0-1.5 0.673-1.5 1.5v16c0 0.827 0.673 1.5 1.5 1.5h13c0.827 0 1.5-0.673 1.5-1.5v-12.5c0-0.133-0.053-0.26-0.146-0.354zM16.793 6h-3.293c-0.276 0-0.5-0.224-0.5-0.5v-3.293l3.793 3.793zM16.5 19h-13c-0.276 0-0.5-0.224-0.5-0.5v-16c0-0.276 0.224-0.5 0.5-0.5h8.5v3.5c0 0.827 0.673 1.5 1.5 1.5h3.5v11.5c0 0.276-0.224 0.5-0.5 0.5z"></path>
<path d="M8.5 17.001c-0.112 0-0.222-0.037-0.312-0.11l-2.363-1.891h-0.325c-0.276 0-0.5-0.224-0.5-0.5v-2c0-0.276 0.224-0.5 0.5-0.5h0.325l2.363-1.891c0.15-0.12 0.356-0.143 0.529-0.060s0.283 0.258 0.283 0.451v6c0 0.192-0.11 0.367-0.283 0.451-0.069 0.033-0.143 0.049-0.217 0.049zM6 14c0.114 0 0.224 0.039 0.312 0.11l1.688 1.35v-3.92l-1.688 1.35c-0.089 0.071-0.199 0.11-0.312 0.11v1z"></path>
<path d="M11.736 16c-0.119 0-0.238-0.042-0.333-0.127-0.206-0.184-0.223-0.5-0.039-0.706 0.411-0.459 0.637-1.050 0.637-1.667s-0.226-1.208-0.637-1.667c-0.184-0.206-0.167-0.522 0.039-0.706s0.522-0.167 0.706 0.039c0.575 0.642 0.891 1.471 0.891 2.334s-0.317 1.691-0.892 2.334c-0.099 0.11-0.235 0.167-0.373 0.167z"></path>
<path d="M13.5 17c-0.105 0-0.21-0.033-0.3-0.1-0.221-0.166-0.265-0.479-0.099-0.7 0.589-0.783 0.9-1.717 0.9-2.7s-0.311-1.916-0.899-2.7c-0.166-0.221-0.121-0.534 0.099-0.7s0.534-0.121 0.7 0.099c0.72 0.958 1.1 2.099 1.1 3.3s-0.38 2.343-1.1 3.301c-0.098 0.131-0.248 0.2-0.4 0.2z"></path>
<path d="M10.366 14.5c-0.085 0-0.171-0.022-0.25-0.067-0.239-0.138-0.321-0.444-0.182-0.683 0.044-0.076 0.067-0.16 0.067-0.25s-0.022-0.173-0.067-0.25c-0.138-0.239-0.057-0.545 0.182-0.683s0.545-0.057 0.683 0.182c0.132 0.227 0.201 0.487 0.201 0.751s-0.070 0.523-0.201 0.751c-0.093 0.16-0.261 0.25-0.433 0.25z"></path>
</symbol>
<symbol id="icon-file-document" viewBox="0 0 20 20">
<path d="M16.5 20h-13c-0.827 0-1.5-0.673-1.5-1.5v-16c0-0.827 0.673-1.5 1.5-1.5h13c0.827 0 1.5 0.673 1.5 1.5v16c0 0.827-0.673 1.5-1.5 1.5zM3.5 2c-0.276 0-0.5 0.224-0.5 0.5v16c0 0.276 0.224 0.5 0.5 0.5h13c0.276 0 0.5-0.224 0.5-0.5v-16c0-0.276-0.224-0.5-0.5-0.5h-13z"></path>
<path d="M12.5 5h-7c-0.276 0-0.5-0.224-0.5-0.5s0.224-0.5 0.5-0.5h7c0.276 0 0.5 0.224 0.5 0.5s-0.224 0.5-0.5 0.5z"></path>
<path d="M14.5 7h-9c-0.276 0-0.5-0.224-0.5-0.5s0.224-0.5 0.5-0.5h9c0.276 0 0.5 0.224 0.5 0.5s-0.224 0.5-0.5 0.5z"></path>
<path d="M14.5 9h-9c-0.276 0-0.5-0.224-0.5-0.5s0.224-0.5 0.5-0.5h9c0.276 0 0.5 0.224 0.5 0.5s-0.224 0.5-0.5 0.5z"></path>
<path d="M10.5 11h-5c-0.276 0-0.5-0.224-0.5-0.5s0.224-0.5 0.5-0.5h5c0.276 0 0.5 0.224 0.5 0.5s-0.224 0.5-0.5 0.5z"></path>
<path d="M14.5 15h-9c-0.276 0-0.5-0.224-0.5-0.5s0.224-0.5 0.5-0.5h9c0.276 0 0.5 0.224 0.5 0.5s-0.224 0.5-0.5 0.5z"></path>
<path d="M12.5 17h-7c-0.276 0-0.5-0.224-0.5-0.5s0.224-0.5 0.5-0.5h7c0.276 0 0.5 0.224 0.5 0.5s-0.224 0.5-0.5 0.5z"></path>
</symbol>
<symbol id="icon-file-image" viewBox="0 0 20 20">
<path d="M17.854 5.646l-4.5-4.5c-0.094-0.094-0.221-0.146-0.354-0.146h-9.5c-0.827 0-1.5 0.673-1.5 1.5v16c0 0.827 0.673 1.5 1.5 1.5h13c0.827 0 1.5-0.673 1.5-1.5v-12.5c0-0.133-0.053-0.26-0.146-0.354zM16.793 6h-3.293c-0.276 0-0.5-0.224-0.5-0.5v-3.293l3.793 3.793zM16.5 19h-13c-0.276 0-0.5-0.224-0.5-0.5v-16c0-0.276 0.224-0.5 0.5-0.5h8.5v3.5c0 0.827 0.673 1.5 1.5 1.5h3.5v11.5c0 0.276-0.224 0.5-0.5 0.5z"></path>
<path d="M11.5 14c-0.827 0-1.5-0.673-1.5-1.5s0.673-1.5 1.5-1.5 1.5 0.673 1.5 1.5-0.673 1.5-1.5 1.5zM11.5 12c-0.276 0-0.5 0.224-0.5 0.5s0.224 0.5 0.5 0.5 0.5-0.224 0.5-0.5-0.224-0.5-0.5-0.5z"></path>
<path d="M14.5 9h-9c-0.276 0-0.5 0.224-0.5 0.5v7c0 0.276 0.224 0.5 0.5 0.5h9c0.276 0 0.5-0.224 0.5-0.5v-7c0-0.276-0.224-0.5-0.5-0.5zM6 14.675l1.266-1.582c0.073-0.091 0.164-0.142 0.259-0.144s0.189 0.044 0.266 0.131l2.596 2.92h-4.387v-1.325zM14 16h-2.275l-3.187-3.585c-0.272-0.306-0.652-0.476-1.039-0.466s-0.758 0.199-1.014 0.519l-0.485 0.606v-3.075h8v6z"></path>
</symbol>
<symbol id="icon-file-archive" viewBox="0 0 20 20">
<path d="M17.854 5.646l-4.5-4.5c-0.094-0.094-0.221-0.146-0.354-0.146h-9.5c-0.827 0-1.5 0.673-1.5 1.5v16c0 0.827 0.673 1.5 1.5 1.5h13c0.827 0 1.5-0.673 1.5-1.5v-12.5c0-0.133-0.053-0.26-0.146-0.354zM16.793 6h-3.293c-0.276 0-0.5-0.224-0.5-0.5v-3.293l3.793 3.793zM16.5 19h-13c-0.276 0-0.5-0.224-0.5-0.5v-16c0-0.276 0.224-0.5 0.5-0.5h8.5v3.5c0 0.827 0.673 1.5 1.5 1.5h3.5v11.5c0 0.276-0.224 0.5-0.5 0.5z"></path>
<path d="M6.5 4h-1c-0.276 0-0.5-0.224-0.5-0.5s0.224-0.5 0.5-0.5h1c0.276 0 0.5 0.224 0.5 0.5s-0.224 0.5-0.5 0.5z"></path>
<path d="M7.5 5h-1c-0.276 0-0.5-0.224-0.5-0.5s0.224-0.5 0.5-0.5h1c0.276 0 0.5 0.224 0.5 0.5s-0.224 0.5-0.5 0.5z"></path>
<path d="M6.5 6h-1c-0.276 0-0.5-0.224-0.5-0.5s0.224-0.5 0.5-0.5h1c0.276 0 0.5 0.224 0.5 0.5s-0.224 0.5-0.5 0.5z"></path>
<path d="M7.5 7h-1c-0.276 0-0.5-0.224-0.5-0.5s0.224-0.5 0.5-0.5h1c0.276 0 0.5 0.224 0.5 0.5s-0.224 0.5-0.5 0.5z"></path>
<path d="M6.5 8h-1c-0.276 0-0.5-0.224-0.5-0.5s0.224-0.5 0.5-0.5h1c0.276 0 0.5 0.224 0.5 0.5s-0.224 0.5-0.5 0.5z"></path>
<path d="M7.5 9h-1c-0.276 0-0.5-0.224-0.5-0.5s0.224-0.5 0.5-0.5h1c0.276 0 0.5 0.224 0.5 0.5s-0.224 0.5-0.5 0.5z"></path>
<path d="M6.5 10c-0.827 0-1.5 0.673-1.5 1.5v4c0 0.827 0.673 1.5 1.5 1.5s1.5-0.673 1.5-1.5v-4c0-0.827-0.673-1.5-1.5-1.5zM6.5 11c0.276 0 0.5 0.224 0.5 0.5v0.5h-1v-0.5c0-0.276 0.224-0.5 0.5-0.5zM6.5 16c-0.276 0-0.5-0.224-0.5-0.5v-2.5h1v2.5c0 0.276-0.224 0.5-0.5 0.5z"></path>
<path d="M7.5 3h-1c-0.276 0-0.5-0.224-0.5-0.5s0.224-0.5 0.5-0.5h1c0.276 0 0.5 0.224 0.5 0.5s-0.224 0.5-0.5 0.5z"></path>
<path d="M6.5 10h-1c-0.276 0-0.5-0.224-0.5-0.5s0.224-0.5 0.5-0.5h1c0.276 0 0.5 0.224 0.5 0.5s-0.224 0.5-0.5 0.5z"></path>
</symbol>
<symbol id="icon-file" viewBox="0 0 20 20">
<path d="M17.854 5.646l-4.5-4.5c-0.094-0.094-0.221-0.146-0.354-0.146h-9.5c-0.827 0-1.5 0.673-1.5 1.5v16c0 0.827 0.673 1.5 1.5 1.5h13c0.827 0 1.5-0.673 1.5-1.5v-12.5c0-0.133-0.053-0.26-0.146-0.354zM16.793 6h-3.293c-0.276 0-0.5-0.224-0.5-0.5v-3.293l3.793 3.793zM17 18.5c0 0.276-0.224 0.5-0.5 0.5h-13c-0.276 0-0.5-0.224-0.5-0.5v-16c0-0.276 0.224-0.5 0.5-0.5h8.5v3.5c0 0.827 0.673 1.5 1.5 1.5h3.5v11.5z"></path>
</symbol>
<symbol id="icon-map" viewBox="0 0 20 20">
<path d="M18.763 1.075c-0.147-0.091-0.331-0.099-0.486-0.022l-5.776 2.888-5.776-2.888c-0.141-0.070-0.306-0.070-0.447 0l-6 3c-0.169 0.085-0.276 0.258-0.276 0.447v15c0 0.173 0.090 0.334 0.237 0.425 0.080 0.050 0.171 0.075 0.263 0.075 0.076 0 0.153-0.018 0.224-0.053l5.776-2.888 5.776 2.888c0.141 0.070 0.307 0.070 0.447 0l6-3c0.169-0.085 0.276-0.258 0.276-0.447v-15c0-0.173-0.090-0.334-0.237-0.425zM6 16.191l-5 2.5v-13.882l5-2.5v13.882zM7 2.309l5 2.5v13.882l-5-2.5v-13.882zM18 16.191l-5 2.5v-13.882l5-2.5v13.882z"></path>
</symbol>
<symbol id="icon-menu" viewBox="0 0 20 20">
<path d="M17.5 6h-15c-0.276 0-0.5-0.224-0.5-0.5s0.224-0.5 0.5-0.5h15c0.276 0 0.5 0.224 0.5 0.5s-0.224 0.5-0.5 0.5z"></path>
<path d="M17.5 11h-15c-0.276 0-0.5-0.224-0.5-0.5s0.224-0.5 0.5-0.5h15c0.276 0 0.5 0.224 0.5 0.5s-0.224 0.5-0.5 0.5z"></path>
<path d="M17.5 16h-15c-0.276 0-0.5-0.224-0.5-0.5s0.224-0.5 0.5-0.5h15c0.276 0 0.5 0.224 0.5 0.5s-0.224 0.5-0.5 0.5z"></path>
</symbol>
<symbol id="icon-more" viewBox="0 0 20 20">
<path d="M2.5 13c-1.378 0-2.5-1.122-2.5-2.5s1.122-2.5 2.5-2.5 2.5 1.122 2.5 2.5-1.122 2.5-2.5 2.5zM2.5 9c-0.827 0-1.5 0.673-1.5 1.5s0.673 1.5 1.5 1.5 1.5-0.673 1.5-1.5c0-0.827-0.673-1.5-1.5-1.5z"></path>
<path d="M9.5 13c-1.378 0-2.5-1.122-2.5-2.5s1.122-2.5 2.5-2.5 2.5 1.122 2.5 2.5-1.122 2.5-2.5 2.5zM9.5 9c-0.827 0-1.5 0.673-1.5 1.5s0.673 1.5 1.5 1.5c0.827 0 1.5-0.673 1.5-1.5s-0.673-1.5-1.5-1.5z"></path>
<path d="M16.5 13c-1.378 0-2.5-1.122-2.5-2.5s1.122-2.5 2.5-2.5 2.5 1.122 2.5 2.5-1.122 2.5-2.5 2.5zM16.5 9c-0.827 0-1.5 0.673-1.5 1.5s0.673 1.5 1.5 1.5 1.5-0.673 1.5-1.5c0-0.827-0.673-1.5-1.5-1.5z"></path>
</symbol>
<symbol id="icon-search" viewBox="0 0 20 20">
<path d="M7.791 3.333c2.437 0 4.419 1.994 4.419 4.444 0 0.923-0.283 1.811-0.819 2.569l-0.435 0.614-0.611 0.437c-0.753 0.539-1.636 0.824-2.554 0.824-2.437 0-4.419-1.994-4.419-4.444s1.982-4.444 4.419-4.444zM7.791 1.111c-3.661 0-6.629 2.985-6.629 6.667s2.968 6.667 6.629 6.667c1.431 0 2.752-0.46 3.835-1.236l5.323 5.354c0.216 0.218 0.5 0.326 0.783 0.326s0.566-0.109 0.782-0.326c0.432-0.435 0.432-1.139 0-1.574l-5.323-5.354c0.771-1.089 1.228-2.418 1.228-3.857 0-3.682-2.968-6.667-6.628-6.667v0z"></path>
</symbol>
<symbol id="icon-star" viewBox="0 0 20 20">
<path d="M15.5 19c-0.082 0-0.164-0.020-0.239-0.061l-5.261-2.869-5.261 2.869c-0.168 0.092-0.373 0.079-0.529-0.032s-0.235-0.301-0.203-0.49l0.958-5.746-3.818-3.818c-0.132-0.132-0.18-0.328-0.123-0.506s0.209-0.31 0.394-0.341l5.749-0.958 2.386-4.772c0.085-0.169 0.258-0.276 0.447-0.276s0.363 0.107 0.447 0.276l2.386 4.772 5.749 0.958c0.185 0.031 0.337 0.162 0.394 0.341s0.010 0.374-0.123 0.506l-3.818 3.818 0.958 5.746c0.031 0.189-0.048 0.379-0.203 0.49-0.086 0.061-0.188 0.093-0.29 0.093zM10 15c0.082 0 0.165 0.020 0.239 0.061l4.599 2.508-0.831-4.987c-0.027-0.159 0.025-0.322 0.14-0.436l3.313-3.313-5.042-0.84c-0.158-0.026-0.293-0.127-0.365-0.27l-2.053-4.106-2.053 4.106c-0.072 0.143-0.207 0.243-0.365 0.27l-5.042 0.84 3.313 3.313c0.114 0.114 0.166 0.276 0.14 0.436l-0.831 4.987 4.599-2.508c0.075-0.041 0.157-0.061 0.239-0.061z"></path>
</symbol>
<symbol id="icon-warning" viewBox="0 0 20 20">
<path d="M18.5 19h-18c-0.178 0-0.342-0.094-0.432-0.248s-0.091-0.343-0.004-0.498l9-16c0.089-0.157 0.255-0.255 0.436-0.255s0.347 0.097 0.436 0.255l9 16c0.087 0.155 0.085 0.344-0.004 0.498s-0.254 0.248-0.432 0.248zM1.355 18h16.29l-8.145-14.48-8.145 14.48z"></path>
<path d="M9.5 14c-0.276 0-0.5-0.224-0.5-0.5v-5c0-0.276 0.224-0.5 0.5-0.5s0.5 0.224 0.5 0.5v5c0 0.276-0.224 0.5-0.5 0.5z"></path>
<path d="M9.5 17c-0.276 0-0.5-0.224-0.5-0.5v-1c0-0.276 0.224-0.5 0.5-0.5s0.5 0.224 0.5 0.5v1c0 0.276-0.224 0.5-0.5 0.5z"></path>
</symbol>
<symbol id="icon-trail-dude" viewBox="0 0 22.343 34.683">
  <path id="Path_15513" data-name="Path 15513" d="M27.318,67.868l-3.7,7.863a1.851,1.851,0,0,1-3.377-1.514l3.416-7.989A2,2,0,0,1,27.347,67.8C27.339,67.822,27.327,67.849,27.318,67.868Z" transform="translate(-20.098 -42.14)" fill="#ffa400"/>
  <path id="Path_15514" data-name="Path 15514" d="M24.91,17.177a1.05,1.05,0,0,0-1.515.268l-1.184,1.794a4.07,4.07,0,0,0-.571,2.052l.367,9.057a1.19,1.19,0,0,0,1.164,1.127l.335,0a1.558,1.558,0,0,0,1.426-1.067l2.808-9.831a1.742,1.742,0,0,0-.592-1.742Z" transform="translate(-21.064 -12.015)" fill="#ffa400"/>
  <g id="Group_379" data-name="Group 379" transform="translate(5.172)">
    <path id="Path_15515" data-name="Path 15515" d="M46.852,10.464a3.386,3.386,0,0,0,.2-6.769,3.388,3.388,0,0,0-.2,6.769Z" transform="translate(-40.045 -3.694)" fill="#ffa400"/>
    <path id="Path_15516" data-name="Path 15516" d="M50.485,31.359,39.778,24.7a2.45,2.45,0,0,0-.219-.119,2.118,2.118,0,0,0-2.8.992,2.627,2.627,0,0,0-.545,1.046l-2.159,8.327a2.629,2.629,0,0,0-.058,1.036,2.321,2.321,0,0,0,.844,2.191L40.8,42.926V49.5a1.85,1.85,0,0,0,3.7,0v-7.46a1.847,1.847,0,0,0-.54-1.3l-.078-.078-4.646-4.637,1.6-6.161,7.73,3.627L47.546,50.477a.793.793,0,0,0,.744.839h.048a.793.793,0,0,0,.791-.746l1-16.72a1.375,1.375,0,0,0,.357-2.493Z" transform="translate(-33.963 -16.665)" fill="#ffa400"/>
  </g>
</symbol>
<symbol id="icon-share" viewBox="0 0 23 23">
  <g id="Group_471" data-name="Group 471" transform="translate(-9.375 -9.375)">
    <path id="Path_19127" data-name="Path 19127" d="M27.952,23.529a4.4,4.4,0,0,0-3.461,1.7l-6.437-3.218a3.96,3.96,0,0,0,0-2.278l6.437-3.218a4.591,4.591,0,1,0-.795-1.581l-6.437,3.218a4.423,4.423,0,1,0,0,5.44L23.7,26.813a4.362,4.362,0,0,0-.167,1.139,4.423,4.423,0,1,0,4.423-4.423Zm0-12.385A2.654,2.654,0,1,1,25.3,13.8,2.657,2.657,0,0,1,27.952,11.144ZM13.8,23.529a2.654,2.654,0,1,1,2.654-2.654A2.657,2.657,0,0,1,13.8,23.529Zm14.154,7.077a2.654,2.654,0,1,1,2.654-2.654A2.657,2.657,0,0,1,27.952,30.606Z" fill="#fffefa"/>
  </g>
</symbol>

</defs>
</svg>
