<?xml version="1.0" encoding="UTF-8"?>
<svg xmlns="http://www.w3.org/2000/svg" version="1.1" viewBox="0 0 43.2 43.2">
  <defs>
    <style>
      .cls-1 {
        fill: #fff;
      }
    </style>
  </defs>
  <!-- Generator: Adobe Illustrator 28.6.0, SVG Export Plug-In . SVG Version: 1.2.0 Build 709)  -->
  <g>
    <g id="Layer_1">
      <path class="cls-1" d="M34.6,6.45H8.6c-2.84,0-5.15,2.31-5.15,5.15v20c0,2.84,2.31,5.15,5.15,5.15h26c2.84,0,5.15-2.31,5.15-5.15V11.6c0-2.84-2.31-5.15-5.15-5.15ZM8.6,8.75h26c1.36,0,2.5.96,2.78,2.23l-15.78,9.28L5.82,10.98c.28-1.28,1.42-2.23,2.78-2.23ZM34.6,34.45H8.6c-1.57,0-2.85-1.28-2.85-2.85V13.61l15.85,9.32,15.85-9.32v17.99c0,1.57-1.28,2.85-2.85,2.85Z"/>
    </g>
  </g>
</svg>